<?xml version="1.0" encoding="UTF-8"?><svg id="_レイヤー_2" xmlns="http://www.w3.org/2000/svg" xmlns:xlink="http://www.w3.org/1999/xlink" viewBox="0 0 800 800"><defs><style>.cls-1{fill:#9b9b9b;}.cls-2{stroke-width:16.42px;}.cls-2,.cls-3,.cls-4{stroke:#000;stroke-miterlimit:10;}.cls-2,.cls-4{fill:#fff;}.cls-3{stroke-width:20px;}.cls-3,.cls-5{fill:none;}.cls-4{stroke-width:7px;}.cls-5{clip-path:url(#clippath);}</style><clipPath id="clippath"><circle class="cls-3" cx="400.21" cy="398.99" r="385.96"/></clipPath></defs><g class="cls-5"><rect class="cls-1" y="-.95" width="799.88" height="799.88"/><line class="cls-4" x1="592.92" y1="-269.94" x2="588.01" y2="649.88"/><line class="cls-4" x1="237.6" y1="-213.14" x2="232.7" y2="706.69"/><line class="cls-4" x1="174.99" y1="-187.54" x2="170.09" y2="732.29"/><path class="cls-2" d="m105.74,936.16s1.69-108.23,16.68-140.18c54.2-115.51,211.23-151.88,338.72-157.07,127.49-5.18,257.32,45.33,343.86,139.1,5.83,6.32,11.57,12.98,14.87,20.92,9.45,22.79-3.27,49.81,4.52,73.22"/><path class="cls-2" d="m511.17,503.86c16.91,45.86,22.96,75.01,37.55,143.72,0,23.93-50.64,34.12-69.66,34.12-17.06,0-48.24-6.06-60.5-17.92-11.34-10.97-14.86-27.49-17.84-42.98-4.03-20.96-8.07-41.92-12.1-62.88-.79-4.09-1.57-8.32-.66-12.39,1.04-4.61,4.13-8.46,7.35-11.93,13.72-14.78,31.37-25.88,50.64-31.84,10.35-3.2,21.57-4.92,31.99-1.92,10.41,3,29.55-6.01,33.25,4.01Z"/><path class="cls-2" d="m206.05,374.61c-9.91-86.09,23.25-179.4,94.47-228.78,71.21-49.38,179.84-43.34,236.04,22.62,30.08,35.31,42.98,82.46,46.51,128.72,7.07,92.43-22.26,188.99-86.81,255.52-26.28,27.08-61.74,49.98-99.22,45.58-24.88-2.92-59.51-9.86-78.75-25.9-62.82-52.33-104.58-131.3-112.24-197.77Z"/><line class="cls-4" x1="681.68" y1="-205.88" x2="676.78" y2="713.94"/><line class="cls-4" x1="728.64" y1="-181.24" x2="723.74" y2="738.59"/><line class="cls-4" x1="356.9" y1="-768.83" x2="351.99" y2="150.99"/></g><circle class="cls-3" cx="400.21" cy="398.99" r="385.96"/></svg>